<svg width="1100" height="720" viewBox="0 0 1100 720" fill="none" xmlns="http://www.w3.org/2000/svg">
  <rect width="1100" height="720" fill="#F7F4EE"/>
  <rect x="56" y="42" width="988" height="52" rx="26" fill="#FFFFFF" stroke="#D7D2C8"/>
  <text x="86" y="75" font-family="Inter, Arial, sans-serif" font-size="18" font-weight="700" fill="#151515">Shaun Whiting</text>
  <text x="735" y="75" font-family="Inter, Arial, sans-serif" font-size="14" fill="#55504A">Work</text>
  <text x="800" y="75" font-family="Inter, Arial, sans-serif" font-size="14" fill="#55504A">About</text>
  <rect x="862" y="54" width="150" height="28" rx="14" fill="#151515"/>
  <text x="897" y="74" font-family="Inter, Arial, sans-serif" font-size="13" font-weight="700" fill="#FFFFFF">Contact</text>
  <text x="70" y="172" font-family="Inter, Arial, sans-serif" font-size="76" font-weight="800" letter-spacing="-1" fill="#151515">Product design for</text>
  <text x="70" y="252" font-family="Inter, Arial, sans-serif" font-size="76" font-weight="800" letter-spacing="-1" fill="#151515">commerce systems</text>
  <text x="74" y="306" font-family="Inter, Arial, sans-serif" font-size="22" fill="#514B45">From Farfetch mobile growth to Amazon returns kiosks.</text>
  <text x="74" y="338" font-family="Inter, Arial, sans-serif" font-size="22" fill="#514B45">Lead with outcomes, then let the work prove it.</text>
  <rect x="74" y="385" width="162" height="44" rx="22" fill="#0B7D75"/>
  <text x="106" y="413" font-family="Inter, Arial, sans-serif" font-size="15" font-weight="700" fill="#FFFFFF">View case studies</text>
  <rect x="260" y="385" width="145" height="44" rx="22" fill="#FFFFFF" stroke="#151515"/>
  <text x="294" y="413" font-family="Inter, Arial, sans-serif" font-size="15" font-weight="700" fill="#151515">Download CV</text>
  <rect x="650" y="145" width="340" height="430" rx="12" fill="#151515"/>
  <rect x="674" y="170" width="292" height="185" rx="8" fill="#D5E9E3"/>
  <rect x="704" y="204" width="120" height="22" rx="4" fill="#151515"/>
  <rect x="704" y="240" width="220" height="12" rx="6" fill="#65746F"/>
  <rect x="704" y="264" width="172" height="12" rx="6" fill="#65746F"/>
  <rect x="704" y="308" width="80" height="28" rx="14" fill="#0B7D75"/>
  <rect x="700" y="388" width="236" height="44" rx="6" fill="#FFFFFF"/>
  <rect x="700" y="452" width="236" height="44" rx="6" fill="#FFFFFF"/>
  <rect x="700" y="516" width="160" height="18" rx="4" fill="#F05A28"/>
  <rect x="70" y="576" width="960" height="86" rx="10" fill="#FFFFFF" stroke="#D7D2C8"/>
  <text x="110" y="613" font-family="Inter, Arial, sans-serif" font-size="14" font-weight="700" fill="#6A6259">SELECTED IMPACT</text>
  <text x="110" y="642" font-family="Inter, Arial, sans-serif" font-size="30" font-weight="800" fill="#151515">20M+ downloads</text>
  <text x="395" y="642" font-family="Inter, Arial, sans-serif" font-size="30" font-weight="800" fill="#151515">+127% revenue</text>
  <text x="690" y="642" font-family="Inter, Arial, sans-serif" font-size="30" font-weight="800" fill="#151515">4.8 star rating</text>
</svg>
