<svg width="1100" height="720" viewBox="0 0 1100 720" fill="none" xmlns="http://www.w3.org/2000/svg">
  <rect width="1100" height="720" fill="#FFFFFF"/>
  <rect x="62" y="56" width="976" height="1" fill="#DADDE2"/>
  <text x="62" y="116" font-family="Inter, Arial, sans-serif" font-size="18" font-weight="700" fill="#0B7D75">Selected work</text>
  <text x="62" y="172" font-family="Inter, Arial, sans-serif" font-size="52" font-weight="800" fill="#111827">Make the case studies scannable.</text>
  <text x="62" y="214" font-family="Inter, Arial, sans-serif" font-size="20" fill="#5B6472">Each card should say client, problem, role, result, and artifact before the click.</text>
  <rect x="62" y="282" width="300" height="318" rx="8" fill="#F3F5F7" stroke="#DADDE2"/>
  <rect x="88" y="306" width="248" height="134" rx="6" fill="#131313"/>
  <rect x="108" y="328" width="74" height="20" rx="4" fill="#0B7D75"/>
  <rect x="108" y="366" width="154" height="10" rx="5" fill="#FFFFFF"/>
  <rect x="108" y="389" width="202" height="10" rx="5" fill="#AEB6C2"/>
  <text x="88" y="480" font-family="Inter, Arial, sans-serif" font-size="13" font-weight="700" fill="#0B7D75">AMAZON</text>
  <text x="88" y="512" font-family="Inter, Arial, sans-serif" font-size="25" font-weight="800" fill="#111827">Returns kiosk</text>
  <text x="88" y="542" font-family="Inter, Arial, sans-serif" font-size="15" fill="#5B6472">Reduced friction in store returns with a self-serve workflow.</text>
  <text x="88" y="576" font-family="Inter, Arial, sans-serif" font-size="14" font-weight="700" fill="#111827">UX strategy | interaction design</text>
  <rect x="400" y="282" width="300" height="318" rx="8" fill="#F3F5F7" stroke="#DADDE2"/>
  <rect x="426" y="306" width="248" height="134" rx="6" fill="#E7EFEA"/>
  <rect x="452" y="330" width="70" height="70" rx="8" fill="#0B7D75"/>
  <rect x="538" y="330" width="100" height="14" rx="7" fill="#111827"/>
  <rect x="538" y="362" width="110" height="10" rx="5" fill="#667085"/>
  <rect x="538" y="385" width="82" height="10" rx="5" fill="#667085"/>
  <text x="426" y="480" font-family="Inter, Arial, sans-serif" font-size="13" font-weight="700" fill="#0B7D75">BLUE YONDER</text>
  <text x="426" y="512" font-family="Inter, Arial, sans-serif" font-size="25" font-weight="800" fill="#111827">Returns platform</text>
  <text x="426" y="542" font-family="Inter, Arial, sans-serif" font-size="15" fill="#5B6472">Operational dashboard for reverse logistics teams.</text>
  <text x="426" y="576" font-family="Inter, Arial, sans-serif" font-size="14" font-weight="700" fill="#111827">Product design | systems thinking</text>
  <rect x="738" y="282" width="300" height="318" rx="8" fill="#F3F5F7" stroke="#DADDE2"/>
  <rect x="764" y="306" width="248" height="134" rx="6" fill="#161616"/>
  <rect x="790" y="328" width="74" height="90" rx="8" fill="#FFFFFF"/>
  <rect x="882" y="328" width="74" height="90" rx="8" fill="#FFFFFF"/>
  <rect x="808" y="348" width="38" height="38" rx="19" fill="#F05A28"/>
  <rect x="900" y="348" width="38" height="38" rx="19" fill="#0B7D75"/>
  <text x="764" y="480" font-family="Inter, Arial, sans-serif" font-size="13" font-weight="700" fill="#0B7D75">FARFETCH</text>
  <text x="764" y="512" font-family="Inter, Arial, sans-serif" font-size="25" font-weight="800" fill="#111827">Luxury commerce</text>
  <text x="764" y="542" font-family="Inter, Arial, sans-serif" font-size="15" fill="#5B6472">Mobile apps and in-store retail technology.</text>
  <text x="764" y="576" font-family="Inter, Arial, sans-serif" font-size="14" font-weight="700" fill="#111827">Mobile UX | innovation</text>
</svg>
