<svg width="1100" height="720" viewBox="0 0 1100 720" fill="none" xmlns="http://www.w3.org/2000/svg">
  <rect width="1100" height="720" fill="#101418"/>
  <rect x="60" y="52" width="980" height="616" rx="10" fill="#F9FAFB"/>
  <rect x="60" y="52" width="980" height="86" rx="10" fill="#111827"/>
  <text x="94" y="100" font-family="Inter, Arial, sans-serif" font-size="14" font-weight="700" fill="#5EEAD4">CASE STUDY</text>
  <text x="205" y="100" font-family="Inter, Arial, sans-serif" font-size="20" font-weight="800" fill="#FFFFFF">Amazon returns kiosk</text>
  <rect x="804" y="76" width="178" height="34" rx="17" fill="#FFFFFF"/>
  <text x="832" y="99" font-family="Inter, Arial, sans-serif" font-size="14" font-weight="700" fill="#111827">Next case study</text>
  <text x="94" y="206" font-family="Inter, Arial, sans-serif" font-size="46" font-weight="800" fill="#111827">Tell the story like a product memo,</text>
  <text x="94" y="256" font-family="Inter, Arial, sans-serif" font-size="46" font-weight="800" fill="#111827">not a blog post.</text>
  <text x="94" y="308" font-family="Inter, Arial, sans-serif" font-size="18" fill="#5B6472">A sticky evidence rail keeps role, constraints, artifacts, and results visible while the reader moves through the narrative.</text>
  <rect x="94" y="366" width="574" height="230" rx="8" fill="#E7EFEA"/>
  <rect x="132" y="402" width="190" height="154" rx="8" fill="#FFFFFF"/>
  <rect x="350" y="402" width="190" height="154" rx="8" fill="#FFFFFF"/>
  <path d="M151 481H303" stroke="#111827" stroke-width="10" stroke-linecap="round"/>
  <path d="M151 510H263" stroke="#667085" stroke-width="10" stroke-linecap="round"/>
  <circle cx="445" cy="479" r="48" fill="#0B7D75"/>
  <path d="M415 535H475" stroke="#667085" stroke-width="10" stroke-linecap="round"/>
  <rect x="720" y="178" width="250" height="418" rx="8" fill="#111827"/>
  <text x="748" y="220" font-family="Inter, Arial, sans-serif" font-size="13" font-weight="700" fill="#5EEAD4">AT A GLANCE</text>
  <text x="748" y="270" font-family="Inter, Arial, sans-serif" font-size="15" fill="#CBD5E1">Role</text>
  <text x="748" y="295" font-family="Inter, Arial, sans-serif" font-size="18" font-weight="800" fill="#FFFFFF">Lead product designer</text>
  <rect x="748" y="326" width="194" height="1" fill="#334155"/>
  <text x="748" y="365" font-family="Inter, Arial, sans-serif" font-size="15" fill="#CBD5E1">Artifacts</text>
  <text x="748" y="390" font-family="Inter, Arial, sans-serif" font-size="18" font-weight="800" fill="#FFFFFF">Flows, prototype, pilot UI</text>
  <rect x="748" y="421" width="194" height="1" fill="#334155"/>
  <text x="748" y="460" font-family="Inter, Arial, sans-serif" font-size="15" fill="#CBD5E1">Outcome</text>
  <text x="748" y="486" font-family="Inter, Arial, sans-serif" font-size="28" font-weight="900" fill="#FFFFFF">Faster returns</text>
  <text x="748" y="518" font-family="Inter, Arial, sans-serif" font-size="16" fill="#CBD5E1">with lower staff dependency</text>
  <rect x="748" y="546" width="118" height="34" rx="17" fill="#5EEAD4"/>
  <text x="771" y="568" font-family="Inter, Arial, sans-serif" font-size="13" font-weight="800" fill="#111827">View prototype</text>
</svg>
