<svg width="40" height="30" viewBox="0 0 40 30" fill="none" xmlns="http://www.w3.org/2000/svg">
<g clip-path="url(#clip0_565_6112)">
<path d="M20.3709 7.61514C20.4744 7.68991 21.0983 8.61521 21.2096 8.77128L22.6238 10.7342L26.5995 16.2015C27.1963 17.0261 27.7724 17.7763 28.3443 18.6213C28.3836 17.7406 28.359 16.75 28.356 15.8629L28.3473 11.5286L25.9399 11.5383C25.4915 11.5394 24.9516 11.5494 24.5109 11.5176C24.1686 11.1639 23.9768 10.8317 23.6856 10.4591C25.6506 10.4258 27.7691 10.4489 29.7421 10.4591L29.7361 14.0907C29.7237 16.4623 29.7287 18.8338 29.7514 21.2053C27.5108 21.2431 25.1653 21.2125 22.9166 21.2156L21.1585 21.2145C20.8753 21.2141 20.4474 21.2039 20.1748 21.2226C20.2352 21.12 20.2967 21.0179 20.3593 20.9162C20.8692 20.0686 20.9332 19.0961 20.537 18.2114C20.0069 17.029 18.9016 16.3714 17.5015 15.8859C17.3605 15.837 17.2145 15.7783 17.0746 15.7259L15.0781 14.9707C15.1751 14.7688 15.409 14.4858 15.5541 14.2898C15.728 14.055 15.8969 13.8183 16.0693 13.5832L17.9856 10.9381C18.6362 10.0423 19.2803 9.14216 19.9118 8.2378C20.052 8.03685 20.2051 7.80117 20.3709 7.61514Z" fill="black"/>
<path d="M20.3763 9.78571C20.4523 9.83537 22.1996 12.3121 22.4437 12.649L23.9112 14.6749C24.0939 14.9292 24.2873 15.1735 24.4613 15.4324C24.3647 15.3862 24.2768 15.3285 24.1863 15.2753C23.5995 14.9311 23.0462 14.5518 22.4443 14.2236C22.2487 14.414 21.6706 15.0746 21.5006 15.294L21.173 14.7421C20.9141 14.3033 20.662 13.8704 20.3627 13.4473C20.2042 13.2236 20.0538 12.9856 19.9177 12.753C19.6636 12.8785 19.3307 13.1086 19.0749 13.2585C18.3782 13.6668 17.6632 14.0547 16.9785 14.4742L20.3763 9.78571Z" fill="white"/>
<path d="M15.7908 10.4495C16.2179 10.4471 16.6809 10.4462 17.1052 10.4687C16.7934 10.7395 16.5871 11.1987 16.2859 11.5236C15.9995 11.5432 15.5394 11.5351 15.2571 11.5285C13.6498 11.5007 12.3249 12.2425 12.3703 13.589C12.4142 14.8893 13.3851 15.289 14.7184 15.8124C16.0107 16.3198 17.5968 16.7615 18.6792 17.5188C19.3257 17.971 19.6814 18.7885 19.6781 19.4554C19.6636 20.0358 19.4621 20.6846 18.9739 21.1307C18.8493 21.2446 18.1529 21.2145 17.9394 21.2146L16.3285 21.2107L10.5557 21.2089C10.6351 21.0726 10.7323 20.9399 10.8213 20.8071C11.315 20.07 11.8574 19.3512 12.3646 18.6204C12.8231 17.9598 13.3616 17.3346 13.7752 16.656C13.179 16.4257 12.5317 16.1477 12.0702 15.7873C10.0321 14.196 10.8872 11.2969 13.6555 10.6324C14.418 10.4494 15.0197 10.4561 15.7908 10.4495Z" fill="black"/>
<path d="M15.028 17.1334C15.8777 17.5242 16.9736 17.7269 17.7209 18.2861C18.2755 18.701 18.5304 19.5662 18.0993 20.0783C18.0378 20.1513 16.4177 20.1243 16.2295 20.1238L12.9121 20.1212C13.0026 20.003 13.0986 19.8466 13.1869 19.7223L14.0221 18.5351C14.3328 18.0932 14.741 17.5652 15.028 17.1334Z" fill="white"/>
<g clip-path="url(#clip1_565_6112)">
<path d="M0 0H41V31H0V0Z" fill="white"/>
<path d="M27.9398 12.5732C28.0728 12.6805 28.679 13.5679 28.8187 13.769C29.5753 14.8485 30.3184 15.9375 31.048 17.0358L39.5449 29.6816C38.3792 29.702 37.2135 29.7137 36.0475 29.7168C35.599 29.7186 34.6091 29.7451 34.1976 29.6701C33.8861 29.1833 33.5737 28.7028 33.2489 28.2248C31.7729 26.0529 30.3951 23.7926 28.8675 21.6581C28.6794 22.0124 28.3676 22.4839 28.149 22.8331C27.5402 23.8047 26.9006 24.7528 26.2832 25.7211C25.8278 26.431 25.3788 27.1449 24.9361 27.8628C24.5323 28.5176 24.154 29.1668 23.691 29.7809L22.1725 27.4889C21.691 26.7768 21.212 26.1077 20.756 25.3762C20.2593 24.6243 19.7284 23.9045 19.2254 23.1589C18.6925 23.8166 18.2445 24.503 17.7718 25.2047L15.7743 28.1913C15.4486 28.6753 15.0877 29.2509 14.7317 29.6999C13.0997 29.7717 11.2535 29.6649 9.59961 29.6919C11.5831 26.8305 13.5256 23.8251 15.4659 20.9236L18.1563 16.9259C18.5767 16.3067 19.0071 15.7249 19.4189 15.093C19.6878 15.6437 20.1341 16.2142 20.4308 16.7697C21.3335 18.4598 22.6083 19.9797 23.5868 21.6036C23.7572 21.2384 24.0853 20.6883 24.2873 20.3162C24.5961 19.7372 24.8949 19.1529 25.1837 18.5635C25.8834 17.1549 26.5657 15.725 27.2208 14.2947C27.4763 13.7368 27.6896 13.1395 27.9398 12.5732Z" fill="black"/>
<path d="M20.162 0.941798C20.3376 0.989884 25.7089 9.51737 26.2038 10.2961C25.9558 10.8479 25.5709 11.4423 25.2984 11.989C24.5612 13.4676 23.9483 14.1643 23 15.5C22.8694 14.9725 22.6895 14.6754 22.4586 14.117C22.1745 13.4302 21.7899 12.6015 21.5 12C20.9941 10.9504 20.6105 9.83905 20.0895 8.82099C19.0246 10.1733 17.9591 11.9886 16.9697 13.4302C16.0608 14.7304 15.1689 16.0425 14.2942 17.3663C13.7979 18.1195 13.3252 18.9141 12.8266 19.6543C11.6534 21.3957 10.4221 23.1635 9.3098 24.9424C8.83718 25.6871 8.27422 26.4662 7.78429 27.2203C7.38624 27.8328 6.60799 29.1529 6.15856 29.6763C4.57086 29.75 2.74516 29.7051 1.14941 29.6781C1.33308 29.3645 1.69947 28.8658 1.91534 28.5398L3.57157 26.0372L7.50479 20.0567L20.162 0.941798Z" fill="black"/>
</g>
</g>
<defs>
<clipPath id="clip0_565_6112">
<rect width="40" height="30" fill="white"/>
</clipPath>
<clipPath id="clip1_565_6112">
<rect width="41" height="31" fill="white"/>
</clipPath>
</defs>
</svg>
