<svg width="64" height="64" viewBox="0 0 64 64" fill="none" xmlns="http://www.w3.org/2000/svg">
  <rect width="64" height="64" rx="14" fill="white"/>
  <g transform="translate(8 14) scale(1.18)">
    <path d="M27.9398 12.5732C28.0728 12.6805 28.679 13.5679 28.8187 13.769C29.5753 14.8485 30.3184 15.9375 31.048 17.0358L39.5449 29.6816C38.3792 29.702 37.2135 29.7137 36.0475 29.7168C35.599 29.7186 34.6091 29.7451 34.1976 29.6701C33.8861 29.1833 33.5737 28.7028 33.2489 28.2248C31.7729 26.0529 30.3951 23.7926 28.8675 21.6581C28.6794 22.0124 28.3676 22.4839 28.149 22.8331C27.5402 23.8047 26.9006 24.7528 26.2832 25.7211C25.8278 26.431 25.3788 27.1449 24.9361 27.8628C24.5323 28.5176 24.154 29.1668 23.691 29.7809L22.1725 27.4889C21.691 26.7768 21.212 26.1077 20.756 25.3762C20.2593 24.6243 19.7284 23.9045 19.2254 23.1589C18.6925 23.8166 18.2445 24.503 17.7718 25.2047L15.7743 28.1913C15.4486 28.6753 15.0877 29.2509 14.7317 29.6999C13.0997 29.7717 11.2535 29.6649 9.59961 29.6919C11.5831 26.8305 13.5256 23.8251 15.4659 20.9236L18.1563 16.926C18.5767 16.3067 19.0071 15.7249 19.4189 15.093C19.6878 15.6437 20.1341 16.2142 20.4308 16.7697C21.3335 18.4598 22.6083 19.9797 23.5868 21.6036C23.7572 21.2384 24.0853 20.6883 24.2873 20.3162C24.5961 19.7372 24.8949 19.1529 25.1837 18.5635C25.8834 17.1549 26.5657 15.725 27.2208 14.2947C27.4763 13.7368 27.6896 13.1396 27.9398 12.5732Z" fill="black"/>
    <path d="M20.162 0.941795C20.3376 0.989882 25.7089 9.51737 26.2038 10.2961C25.9558 10.8479 25.5709 11.4423 25.2984 11.989C24.5612 13.4676 23.9671 14.5218 23.0188 15.8575C22.8882 15.33 22.6039 14.6844 22.4586 14.117C22.2858 13.4424 22.2118 12.5956 21.9219 11.9941C21.416 10.9445 20.6105 9.83904 20.0895 8.82098C19.0246 10.1733 17.9591 11.9886 16.9697 13.4302C16.0608 14.7304 15.1689 16.0425 14.2942 17.3663C13.7979 18.1195 13.3252 18.9141 12.8266 19.6543C11.6534 21.3957 10.4221 23.1635 9.3098 24.9424C8.83718 25.6871 8.27422 26.4662 7.78429 27.2203C7.38624 27.8328 6.60799 29.1529 6.15856 29.6763C4.57086 29.75 2.74516 29.7051 1.14941 29.6781C1.33308 29.3645 1.69947 28.8658 1.91534 28.5398L3.57157 26.0372L7.50479 20.0567L20.162 0.941795Z" fill="black"/>
  </g>
</svg>
