<svg width="39" height="30" viewBox="0 0 39 30" fill="none" xmlns="http://www.w3.org/2000/svg">
<g clip-path="url(#clip0_29_988)">
<path d="M19.3709 7.61514C19.4744 7.68991 20.0983 8.61521 20.2096 8.77128L21.6238 10.7342L25.5995 16.2015C26.1963 17.0261 26.7724 17.7763 27.3443 18.6213C27.3836 17.7406 27.359 16.75 27.356 15.8629L27.3473 11.5286L24.9399 11.5383C24.4915 11.5394 23.9516 11.5494 23.5109 11.5176C23.1686 11.1639 22.9768 10.8317 22.6856 10.4591C24.6506 10.4258 26.7691 10.4489 28.7421 10.4591L28.7361 14.0907C28.7237 16.4623 28.7287 18.8338 28.7514 21.2053C26.5108 21.2431 24.1653 21.2125 21.9166 21.2156L20.1585 21.2145C19.8753 21.2141 19.4474 21.2039 19.1748 21.2226C19.2352 21.12 19.2967 21.0179 19.3593 20.9162C19.8692 20.0686 19.9332 19.0961 19.537 18.2114C19.0069 17.029 17.9016 16.3714 16.5015 15.8859C16.3605 15.837 16.2145 15.7783 16.0746 15.7259L14.0781 14.9707C14.1751 14.7688 14.409 14.4858 14.5541 14.2898C14.728 14.055 14.8969 13.8183 15.0693 13.5832L16.9856 10.9381C17.6362 10.0423 18.2803 9.14216 18.9118 8.2378C19.052 8.03685 19.2051 7.80117 19.3709 7.61514Z" fill="black"/>
<path d="M19.3763 9.78571C19.4523 9.83537 21.1996 12.3121 21.4437 12.649L22.9112 14.6749C23.0939 14.9292 23.2873 15.1735 23.4613 15.4324C23.3647 15.3862 23.2768 15.3285 23.1863 15.2753C22.5995 14.9311 22.0462 14.5518 21.4443 14.2236C21.2487 14.414 20.6706 15.0746 20.5006 15.294L20.173 14.7421C19.9141 14.3033 19.662 13.8704 19.3627 13.4473C19.2042 13.2236 19.0538 12.9856 18.9177 12.753C18.6636 12.8785 18.3307 13.1086 18.0749 13.2585C17.3782 13.6668 16.6632 14.0547 15.9785 14.4742L19.3763 9.78571Z" fill="white"/>
<path d="M14.7909 10.4495C15.2179 10.4471 15.6809 10.4462 16.1052 10.4687C15.7934 10.7395 15.5871 11.1987 15.2859 11.5236C14.9995 11.5432 14.5394 11.5351 14.2571 11.5285C12.6498 11.5007 11.3249 12.2425 11.3703 13.589C11.4142 14.8893 12.3851 15.289 13.7184 15.8124C15.0107 16.3198 16.5968 16.7615 17.6792 17.5188C18.3257 17.971 18.6814 18.7885 18.6781 19.4554C18.6636 20.0358 18.4621 20.6846 17.9739 21.1307C17.8493 21.2446 17.1529 21.2145 16.9394 21.2146L15.3285 21.2107L9.55566 21.2089C9.63513 21.0726 9.73229 20.9399 9.82125 20.8071C10.315 20.07 10.8574 19.3512 11.3646 18.6204C11.8231 17.9598 12.3616 17.3346 12.7752 16.656C12.179 16.4257 11.5317 16.1477 11.0702 15.7873C9.03207 14.196 9.88716 11.2969 12.6555 10.6324C13.418 10.4494 14.0197 10.4561 14.7909 10.4495Z" fill="black"/>
<path d="M14.028 17.1334C14.8777 17.5242 15.9736 17.7269 16.7209 18.2861C17.2755 18.701 17.5304 19.5662 17.0993 20.0783C17.0378 20.1513 15.4177 20.1243 15.2295 20.1238L11.9121 20.1212C12.0026 20.003 12.0986 19.8466 12.1869 19.7223L13.0221 18.5351C13.3328 18.0932 13.741 17.5652 14.028 17.1334Z" fill="white"/>
<g clip-path="url(#clip1_29_988)">
<path d="M-1 0H40V31H-1V0Z" fill="white"/>
<path d="M26.9398 12.5732C27.0728 12.6805 27.679 13.5679 27.8187 13.769C28.5753 14.8485 29.3184 15.9375 30.048 17.0358L38.5449 29.6816C37.3792 29.702 36.2135 29.7137 35.0475 29.7168C34.599 29.7186 33.6091 29.7451 33.1976 29.6701C32.8861 29.1833 32.5737 28.7028 32.2489 28.2248C30.7729 26.0529 29.3951 23.7926 27.8675 21.6581C27.6794 22.0124 27.3676 22.4839 27.149 22.8331C26.5402 23.8047 25.9006 24.7528 25.2832 25.7211C24.8278 26.431 24.3788 27.1449 23.9361 27.8628C23.5323 28.5176 23.154 29.1668 22.691 29.7809L21.1725 27.4889C20.691 26.7768 20.212 26.1077 19.756 25.3762C19.2593 24.6243 18.7284 23.9045 18.2254 23.1589C17.6925 23.8166 17.2445 24.503 16.7718 25.2047L14.7743 28.1913C14.4486 28.6753 14.0877 29.2509 13.7317 29.6999C12.0997 29.7717 10.2535 29.6649 8.59961 29.6919C10.5831 26.8305 12.5256 23.8251 14.4659 20.9236L17.1563 16.926C17.5767 16.3067 18.0071 15.7249 18.4189 15.093C18.6878 15.6437 19.1341 16.2142 19.4308 16.7697C20.3335 18.4598 21.6083 19.9797 22.5868 21.6036C22.7572 21.2384 23.0853 20.6883 23.2873 20.3162C23.5961 19.7372 23.8949 19.1529 24.1837 18.5635C24.8834 17.1549 25.5657 15.725 26.2208 14.2947C26.4763 13.7368 26.6896 13.1396 26.9398 12.5732Z" fill="black"/>
<path d="M19.162 0.941795C19.3376 0.989882 24.7089 9.51737 25.2038 10.2961C24.9558 10.8479 24.5709 11.4423 24.2984 11.989C23.5612 13.4676 22.9671 14.5218 22.0188 15.8575C21.8882 15.33 21.6039 14.6844 21.4586 14.117C21.2858 13.4424 21.2118 12.5956 20.9219 11.9941C20.416 10.9445 19.6105 9.83904 19.0895 8.82098C18.0246 10.1733 16.9591 11.9886 15.9697 13.4302C15.0608 14.7304 14.1689 16.0425 13.2942 17.3663C12.7979 18.1195 12.3252 18.9141 11.8266 19.6543C10.6534 21.3957 9.42212 23.1635 8.3098 24.9424C7.83718 25.6871 7.27422 26.4662 6.78429 27.2203C6.38624 27.8328 5.60799 29.1529 5.15856 29.6763C3.57086 29.75 1.74516 29.7051 0.149414 29.6781C0.333077 29.3645 0.699468 28.8658 0.915336 28.5398L2.57157 26.0372L6.50479 20.0567L19.162 0.941795Z" fill="black"/>
</g>
</g>
<defs>
<clipPath id="clip0_29_988">
<rect width="40" height="30" fill="white" transform="translate(-1)"/>
</clipPath>
<clipPath id="clip1_29_988">
<rect width="41" height="31" fill="white" transform="translate(-1)"/>
</clipPath>
</defs>
</svg>
